<svg viewBox="0 0 800 500" xmlns="http://www.w3.org/2000/svg">
  <!-- Define styles for labels -->
  <style>
    .primal-label {
      font-family: sans-serif;
      font-size: 16px;
      font-weight: 600;
      fill: #333;
      text-anchor: middle;
      pointer-events: none;
      user-select: none;
    }
    .primal-region {
      transition: opacity 0.2s ease;
      cursor: pointer;
    }
    .primal-region:hover {
      opacity: 0.8;
    }
  </style>

  <!-- Background cow outline -->
  <path id="cow-outline"
        d="M 650 180
           Q 670 160 680 170
           Q 690 180 695 200
           L 695 280
           Q 695 300 690 310
           L 680 340
           Q 675 360 665 370
           L 660 380
           Q 655 395 645 400
           L 620 410
           Q 600 415 590 410
           L 590 430
           Q 590 445 580 450
           L 560 450
           Q 550 450 545 440
           L 545 410
           L 520 410
           L 520 440
           Q 520 450 510 450
           L 490 450
           Q 480 450 475 440
           L 475 410
           L 400 410
           L 400 440
           Q 400 450 390 450
           L 370 450
           Q 360 450 355 440
           L 355 410
           L 280 410
           L 280 440
           Q 280 450 270 450
           L 250 450
           Q 240 450 235 440
           L 235 410
           L 200 405
           Q 180 400 170 390
           L 155 370
           Q 145 350 140 330
           L 130 300
           Q 125 280 120 260
           L 115 230
           Q 110 210 115 190
           Q 120 170 130 160
           L 150 145
           Q 170 135 190 140
           L 210 150
           Q 230 160 245 170
           L 270 185
           L 300 195
           L 340 200
           L 380 202
           L 420 202
           L 460 200
           L 500 197
           L 540 192
           L 580 185
           L 620 177
           L 650 180
           Z"
        fill="#f5f5f5"
        stroke="#333"
        stroke-width="2"/>

  <!-- Chuck (front shoulder area) -->
  <path id="chuck"
        class="primal-region"
        data-primal="Chuck"
        d="M 150 145
           Q 170 135 190 140
           L 210 150
           Q 230 160 245 170
           L 270 185
           L 270 250
           Q 265 280 260 300
           L 250 330
           L 240 350
           L 230 365
           Q 220 375 210 380
           L 200 385
           L 190 385
           Q 175 382 165 375
           L 155 365
           Q 145 350 140 330
           L 130 300
           Q 125 280 120 260
           L 115 230
           Q 110 210 115 190
           Q 120 170 130 160
           L 150 145
           Z"
        fill="#e8b4b4"
        stroke="#333"
        stroke-width="2"/>

  <!-- Brisket (lower chest) -->
  <path id="brisket"
        class="primal-region"
        data-primal="Brisket"
        d="M 190 385
           L 200 385
           L 210 380
           L 230 365
           L 240 350
           L 250 330
           L 260 345
           L 270 365
           L 280 385
           L 280 410
           L 235 410
           Q 240 450 235 440
           L 235 410
           L 200 405
           Q 185 398 190 385
           Z"
        fill="#e4c4a4"
        stroke="#333"
        stroke-width="2"/>

  <!-- Shank (front and rear legs lower portions) -->
  <path id="shank"
        class="primal-region"
        data-primal="Shank"
        d="M 235 410
           L 280 410
           L 280 440
           Q 280 450 270 450
           L 250 450
           Q 240 450 235 440
           L 235 410
           M 355 410
           L 400 410
           L 400 440
           Q 400 450 390 450
           L 370 450
           Q 360 450 355 440
           L 355 410
           M 475 410
           L 520 410
           L 520 440
           Q 520 450 510 450
           L 490 450
           Q 480 450 475 440
           L 475 410
           M 545 410
           L 590 410
           L 590 430
           Q 590 445 580 450
           L 560 450
           Q 550 450 545 440
           L 545 410
           Z"
        fill="#c4c4c4"
        stroke="#333"
        stroke-width="2"/>

  <!-- Plate (lower middle belly) -->
  <path id="plate"
        class="primal-region"
        data-primal="Plate"
        d="M 280 385
           L 270 365
           L 260 345
           L 250 330
           L 260 300
           Q 265 280 270 250
           L 315 260
           L 360 268
           L 400 273
           L 430 370
           L 420 385
           L 400 395
           L 380 402
           L 360 406
           L 340 408
           L 320 408
           L 300 405
           L 280 395
           L 280 385
           Z"
        fill="#f4e4a4"
        stroke="#333"
        stroke-width="2"/>

  <!-- Rib (upper back behind chuck) -->
  <path id="rib"
        class="primal-region"
        data-primal="Rib"
        d="M 270 185
           L 300 195
           L 340 200
           L 380 202
           L 400 202
           L 400 273
           L 360 268
           L 315 260
           L 270 250
           L 270 185
           Z"
        fill="#f4d4a4"
        stroke="#333"
        stroke-width="2"/>

  <!-- Loin (middle-upper back) -->
  <path id="loin"
        class="primal-region"
        data-primal="Loin"
        d="M 400 202
           L 420 202
           L 460 200
           L 500 197
           L 540 192
           L 540 285
           L 500 295
           L 460 300
           L 430 302
           L 430 370
           L 400 273
           L 400 202
           Z"
        fill="#c4e4c4"
        stroke="#333"
        stroke-width="2"/>

  <!-- Flank (belly/abdomen area) -->
  <path id="flank"
        class="primal-region"
        data-primal="Flank"
        d="M 430 302
           L 460 300
           L 500 295
           L 540 285
           L 545 315
           L 545 345
           L 540 370
           L 530 385
           L 515 395
           L 495 402
           L 475 406
           L 455 408
           L 435 408
           L 430 400
           L 430 370
           L 430 302
           Z"
        fill="#d4a4d4"
        stroke="#333"
        stroke-width="2"/>

  <!-- Round (rear/hind leg area) -->
  <path id="round"
        class="primal-region"
        data-primal="Round"
        d="M 540 192
           L 580 185
           L 620 177
           L 650 180
           Q 670 160 680 170
           Q 690 180 695 200
           L 695 280
           Q 695 300 690 310
           L 680 340
           Q 675 360 665 370
           L 660 380
           Q 655 395 645 400
           L 620 410
           Q 600 415 590 410
           L 590 430
           L 545 410
           L 545 345
           L 545 315
           L 540 285
           L 540 192
           Z"
        fill="#a4c4e4"
        stroke="#333"
        stroke-width="2"/>

  <!-- Labels for each primal region -->
  <text x="180" y="270" class="primal-label">Chuck</text>
  <text x="250" y="365" class="primal-label">Brisket</text>
  <text x="330" y="200" class="primal-label">Rib</text>
  <text x="470" y="240" class="primal-label">Loin</text>
  <text x="490" y="350" class="primal-label">Flank</text>
  <text x="340" y="350" class="primal-label">Plate</text>
  <text x="610" y="280" class="primal-label">Round</text>
  <text x="320" y="435" class="primal-label">Shank</text>
</svg>
